<mxfile host="app.diagrams.net" modified="2023-10-25T17:12:52.759Z" agent="Mozilla/5.0 (Windows NT 10.0; Win64; x64) AppleWebKit/537.36 (KHTML, like Gecko) Chrome/118.0.0.0 Safari/537.36" etag="svWB4xGsGbcDQ3OzjZpi" version="22.0.8" type="device">
  <diagram name="Page-1" id="74e2e168-ea6b-b213-b513-2b3c1d86103e">
    <mxGraphModel dx="1035" dy="553" grid="1" gridSize="10" guides="1" tooltips="1" connect="1" arrows="1" fold="1" page="1" pageScale="1" pageWidth="1100" pageHeight="850" background="none" math="0" shadow="0">
      <root>
        <mxCell id="0" />
        <mxCell id="1" parent="0" />
        <mxCell id="UMzdprbid3UC_ql1CbM--3" value="" style="edgeStyle=orthogonalEdgeStyle;rounded=0;orthogonalLoop=1;jettySize=auto;html=1;" edge="1" parent="1" source="UMzdprbid3UC_ql1CbM--1" target="UMzdprbid3UC_ql1CbM--2">
          <mxGeometry relative="1" as="geometry" />
        </mxCell>
        <mxCell id="UMzdprbid3UC_ql1CbM--1" value="Inicio" style="ellipse;whiteSpace=wrap;html=1;" vertex="1" parent="1">
          <mxGeometry x="60" y="10" width="120" height="80" as="geometry" />
        </mxCell>
        <mxCell id="UMzdprbid3UC_ql1CbM--5" style="edgeStyle=orthogonalEdgeStyle;rounded=0;orthogonalLoop=1;jettySize=auto;html=1;entryX=1;entryY=0.5;entryDx=0;entryDy=0;exitX=1;exitY=0.5;exitDx=0;exitDy=0;" edge="1" parent="1" source="UMzdprbid3UC_ql1CbM--2" target="UMzdprbid3UC_ql1CbM--4">
          <mxGeometry relative="1" as="geometry">
            <mxPoint x="170" y="180" as="sourcePoint" />
            <Array as="points">
              <mxPoint x="200" y="175" />
              <mxPoint x="200" y="480" />
            </Array>
          </mxGeometry>
        </mxCell>
        <mxCell id="UMzdprbid3UC_ql1CbM--8" value="" style="edgeStyle=orthogonalEdgeStyle;rounded=0;orthogonalLoop=1;jettySize=auto;html=1;" edge="1" parent="1" source="UMzdprbid3UC_ql1CbM--2" target="UMzdprbid3UC_ql1CbM--7">
          <mxGeometry relative="1" as="geometry" />
        </mxCell>
        <mxCell id="UMzdprbid3UC_ql1CbM--2" value="Processo é privado?" style="rhombus;whiteSpace=wrap;html=1;" vertex="1" parent="1">
          <mxGeometry x="75" y="130" width="90" height="90" as="geometry" />
        </mxCell>
        <mxCell id="UMzdprbid3UC_ql1CbM--4" value="Fim" style="ellipse;whiteSpace=wrap;html=1;" vertex="1" parent="1">
          <mxGeometry x="60" y="440" width="120" height="80" as="geometry" />
        </mxCell>
        <mxCell id="UMzdprbid3UC_ql1CbM--6" value="Sim" style="text;html=1;align=center;verticalAlign=middle;resizable=0;points=[];autosize=1;strokeColor=none;fillColor=none;" vertex="1" parent="1">
          <mxGeometry x="160" y="128" width="40" height="30" as="geometry" />
        </mxCell>
        <mxCell id="UMzdprbid3UC_ql1CbM--11" style="edgeStyle=orthogonalEdgeStyle;rounded=0;orthogonalLoop=1;jettySize=auto;html=1;" edge="1" parent="1" source="UMzdprbid3UC_ql1CbM--7">
          <mxGeometry relative="1" as="geometry">
            <mxPoint x="200" y="285" as="targetPoint" />
          </mxGeometry>
        </mxCell>
        <mxCell id="UMzdprbid3UC_ql1CbM--15" value="" style="edgeStyle=orthogonalEdgeStyle;rounded=0;orthogonalLoop=1;jettySize=auto;html=1;" edge="1" parent="1" source="UMzdprbid3UC_ql1CbM--7" target="UMzdprbid3UC_ql1CbM--14">
          <mxGeometry relative="1" as="geometry" />
        </mxCell>
        <mxCell id="UMzdprbid3UC_ql1CbM--7" value="O requerido do processo está entre os parametrizados?" style="rhombus;whiteSpace=wrap;html=1;" vertex="1" parent="1">
          <mxGeometry x="75" y="240" width="90" height="90" as="geometry" />
        </mxCell>
        <mxCell id="UMzdprbid3UC_ql1CbM--12" value="Não" style="text;html=1;align=center;verticalAlign=middle;resizable=0;points=[];autosize=1;strokeColor=none;fillColor=none;" vertex="1" parent="1">
          <mxGeometry x="150" y="240" width="50" height="30" as="geometry" />
        </mxCell>
        <mxCell id="UMzdprbid3UC_ql1CbM--16" value="" style="edgeStyle=orthogonalEdgeStyle;rounded=0;orthogonalLoop=1;jettySize=auto;html=1;" edge="1" parent="1" source="UMzdprbid3UC_ql1CbM--14" target="UMzdprbid3UC_ql1CbM--4">
          <mxGeometry relative="1" as="geometry" />
        </mxCell>
        <mxCell id="UMzdprbid3UC_ql1CbM--14" value="Analisa Incidentes" style="rounded=1;whiteSpace=wrap;html=1;" vertex="1" parent="1">
          <mxGeometry x="60" y="350" width="120" height="60" as="geometry" />
        </mxCell>
        <mxCell id="UMzdprbid3UC_ql1CbM--19" value="" style="edgeStyle=orthogonalEdgeStyle;rounded=0;orthogonalLoop=1;jettySize=auto;html=1;" edge="1" parent="1" source="UMzdprbid3UC_ql1CbM--17" target="UMzdprbid3UC_ql1CbM--18">
          <mxGeometry relative="1" as="geometry" />
        </mxCell>
        <mxCell id="UMzdprbid3UC_ql1CbM--17" value="Analise de Incidentes" style="ellipse;whiteSpace=wrap;html=1;" vertex="1" parent="1">
          <mxGeometry x="450" y="10" width="120" height="80" as="geometry" />
        </mxCell>
        <mxCell id="UMzdprbid3UC_ql1CbM--23" value="" style="edgeStyle=orthogonalEdgeStyle;rounded=0;orthogonalLoop=1;jettySize=auto;html=1;" edge="1" parent="1" source="UMzdprbid3UC_ql1CbM--18" target="UMzdprbid3UC_ql1CbM--22">
          <mxGeometry relative="1" as="geometry" />
        </mxCell>
        <mxCell id="UMzdprbid3UC_ql1CbM--27" value="" style="edgeStyle=orthogonalEdgeStyle;rounded=0;orthogonalLoop=1;jettySize=auto;html=1;" edge="1" parent="1" source="UMzdprbid3UC_ql1CbM--18" target="UMzdprbid3UC_ql1CbM--26">
          <mxGeometry relative="1" as="geometry" />
        </mxCell>
        <mxCell id="UMzdprbid3UC_ql1CbM--18" value="É precatório?" style="rhombus;whiteSpace=wrap;html=1;" vertex="1" parent="1">
          <mxGeometry x="465" y="110" width="90" height="90" as="geometry" />
        </mxCell>
        <mxCell id="UMzdprbid3UC_ql1CbM--31" value="" style="edgeStyle=orthogonalEdgeStyle;rounded=0;orthogonalLoop=1;jettySize=auto;html=1;" edge="1" parent="1" source="UMzdprbid3UC_ql1CbM--22" target="UMzdprbid3UC_ql1CbM--30">
          <mxGeometry relative="1" as="geometry" />
        </mxCell>
        <mxCell id="UMzdprbid3UC_ql1CbM--47" style="edgeStyle=orthogonalEdgeStyle;rounded=0;orthogonalLoop=1;jettySize=auto;html=1;" edge="1" parent="1" source="UMzdprbid3UC_ql1CbM--22" target="UMzdprbid3UC_ql1CbM--37">
          <mxGeometry relative="1" as="geometry">
            <Array as="points">
              <mxPoint x="420" y="265" />
              <mxPoint x="420" y="560" />
            </Array>
          </mxGeometry>
        </mxCell>
        <mxCell id="UMzdprbid3UC_ql1CbM--22" value="Precatório &amp;lt;&amp;gt; Arquivado e &amp;lt;&amp;gt; Extinto ?" style="rhombus;whiteSpace=wrap;html=1;" vertex="1" parent="1">
          <mxGeometry x="465" y="220" width="90" height="90" as="geometry" />
        </mxCell>
        <mxCell id="UMzdprbid3UC_ql1CbM--29" value="" style="edgeStyle=orthogonalEdgeStyle;rounded=0;orthogonalLoop=1;jettySize=auto;html=1;" edge="1" parent="1" source="UMzdprbid3UC_ql1CbM--26" target="UMzdprbid3UC_ql1CbM--28">
          <mxGeometry relative="1" as="geometry" />
        </mxCell>
        <mxCell id="UMzdprbid3UC_ql1CbM--46" style="edgeStyle=orthogonalEdgeStyle;rounded=0;orthogonalLoop=1;jettySize=auto;html=1;entryX=1;entryY=0.5;entryDx=0;entryDy=0;" edge="1" parent="1" source="UMzdprbid3UC_ql1CbM--26" target="UMzdprbid3UC_ql1CbM--37">
          <mxGeometry relative="1" as="geometry">
            <Array as="points">
              <mxPoint x="920" y="155" />
              <mxPoint x="920" y="560" />
            </Array>
          </mxGeometry>
        </mxCell>
        <mxCell id="UMzdprbid3UC_ql1CbM--26" value="É cumprimento?" style="rhombus;whiteSpace=wrap;html=1;" vertex="1" parent="1">
          <mxGeometry x="620" y="110" width="90" height="90" as="geometry" />
        </mxCell>
        <mxCell id="UMzdprbid3UC_ql1CbM--33" value="" style="edgeStyle=orthogonalEdgeStyle;rounded=0;orthogonalLoop=1;jettySize=auto;html=1;" edge="1" parent="1" source="UMzdprbid3UC_ql1CbM--28" target="UMzdprbid3UC_ql1CbM--32">
          <mxGeometry relative="1" as="geometry" />
        </mxCell>
        <mxCell id="UMzdprbid3UC_ql1CbM--45" value="" style="edgeStyle=orthogonalEdgeStyle;rounded=0;orthogonalLoop=1;jettySize=auto;html=1;" edge="1" parent="1" source="UMzdprbid3UC_ql1CbM--28" target="UMzdprbid3UC_ql1CbM--44">
          <mxGeometry relative="1" as="geometry" />
        </mxCell>
        <mxCell id="UMzdprbid3UC_ql1CbM--28" value="Tem incidentes?" style="rhombus;whiteSpace=wrap;html=1;" vertex="1" parent="1">
          <mxGeometry x="620" y="220" width="90" height="90" as="geometry" />
        </mxCell>
        <mxCell id="UMzdprbid3UC_ql1CbM--35" style="edgeStyle=orthogonalEdgeStyle;rounded=0;orthogonalLoop=1;jettySize=auto;html=1;entryX=0;entryY=0.5;entryDx=0;entryDy=0;" edge="1" parent="1" source="UMzdprbid3UC_ql1CbM--30" target="UMzdprbid3UC_ql1CbM--34">
          <mxGeometry relative="1" as="geometry">
            <Array as="points">
              <mxPoint x="510" y="480" />
            </Array>
          </mxGeometry>
        </mxCell>
        <mxCell id="UMzdprbid3UC_ql1CbM--30" value="Separa precatório" style="rounded=1;whiteSpace=wrap;html=1;" vertex="1" parent="1">
          <mxGeometry x="450" y="340" width="120" height="60" as="geometry" />
        </mxCell>
        <mxCell id="UMzdprbid3UC_ql1CbM--36" style="edgeStyle=orthogonalEdgeStyle;rounded=0;orthogonalLoop=1;jettySize=auto;html=1;entryX=1;entryY=0.5;entryDx=0;entryDy=0;" edge="1" parent="1" source="UMzdprbid3UC_ql1CbM--32" target="UMzdprbid3UC_ql1CbM--34">
          <mxGeometry relative="1" as="geometry" />
        </mxCell>
        <mxCell id="UMzdprbid3UC_ql1CbM--32" value="Separa cumprimento" style="rounded=1;whiteSpace=wrap;html=1;" vertex="1" parent="1">
          <mxGeometry x="605" y="340" width="120" height="60" as="geometry" />
        </mxCell>
        <mxCell id="UMzdprbid3UC_ql1CbM--38" value="" style="edgeStyle=orthogonalEdgeStyle;rounded=0;orthogonalLoop=1;jettySize=auto;html=1;" edge="1" parent="1" source="UMzdprbid3UC_ql1CbM--34" target="UMzdprbid3UC_ql1CbM--37">
          <mxGeometry relative="1" as="geometry" />
        </mxCell>
        <mxCell id="UMzdprbid3UC_ql1CbM--34" value="" style="ellipse;whiteSpace=wrap;html=1;aspect=fixed;" vertex="1" parent="1">
          <mxGeometry x="585" y="470" width="20" height="20" as="geometry" />
        </mxCell>
        <mxCell id="UMzdprbid3UC_ql1CbM--37" value="Fim" style="ellipse;whiteSpace=wrap;html=1;" vertex="1" parent="1">
          <mxGeometry x="535" y="520" width="120" height="80" as="geometry" />
        </mxCell>
        <mxCell id="UMzdprbid3UC_ql1CbM--39" value="NÃO" style="text;html=1;align=center;verticalAlign=middle;resizable=0;points=[];autosize=1;strokeColor=none;fillColor=none;" vertex="1" parent="1">
          <mxGeometry x="554" y="124" width="50" height="30" as="geometry" />
        </mxCell>
        <mxCell id="UMzdprbid3UC_ql1CbM--40" value="SIM" style="text;html=1;align=center;verticalAlign=middle;resizable=0;points=[];autosize=1;strokeColor=none;fillColor=none;" vertex="1" parent="1">
          <mxGeometry x="512" y="195" width="40" height="30" as="geometry" />
        </mxCell>
        <mxCell id="UMzdprbid3UC_ql1CbM--41" value="SIM" style="text;html=1;align=center;verticalAlign=middle;resizable=0;points=[];autosize=1;strokeColor=none;fillColor=none;" vertex="1" parent="1">
          <mxGeometry x="511" y="302" width="40" height="30" as="geometry" />
        </mxCell>
        <mxCell id="UMzdprbid3UC_ql1CbM--42" value="SIM" style="text;html=1;align=center;verticalAlign=middle;resizable=0;points=[];autosize=1;strokeColor=none;fillColor=none;" vertex="1" parent="1">
          <mxGeometry x="669" y="193" width="40" height="30" as="geometry" />
        </mxCell>
        <mxCell id="UMzdprbid3UC_ql1CbM--43" value="NÃO" style="text;html=1;align=center;verticalAlign=middle;resizable=0;points=[];autosize=1;strokeColor=none;fillColor=none;" vertex="1" parent="1">
          <mxGeometry x="666" y="304" width="50" height="30" as="geometry" />
        </mxCell>
        <mxCell id="UMzdprbid3UC_ql1CbM--44" value="Analisa incidentes" style="shape=process;whiteSpace=wrap;html=1;backgroundOutline=1;" vertex="1" parent="1">
          <mxGeometry x="775" y="235" width="120" height="60" as="geometry" />
        </mxCell>
        <mxCell id="UMzdprbid3UC_ql1CbM--48" value="NÃO" style="text;html=1;align=center;verticalAlign=middle;resizable=0;points=[];autosize=1;strokeColor=none;fillColor=none;" vertex="1" parent="1">
          <mxGeometry x="415" y="235" width="50" height="30" as="geometry" />
        </mxCell>
        <mxCell id="UMzdprbid3UC_ql1CbM--49" value="SIM" style="text;html=1;align=center;verticalAlign=middle;resizable=0;points=[];autosize=1;strokeColor=none;fillColor=none;" vertex="1" parent="1">
          <mxGeometry x="716" y="235" width="40" height="30" as="geometry" />
        </mxCell>
        <mxCell id="UMzdprbid3UC_ql1CbM--50" value="NÃO" style="text;html=1;align=center;verticalAlign=middle;resizable=0;points=[];autosize=1;strokeColor=none;fillColor=none;" vertex="1" parent="1">
          <mxGeometry x="716" y="124" width="50" height="30" as="geometry" />
        </mxCell>
      </root>
    </mxGraphModel>
  </diagram>
</mxfile>
